<?xml version="1.0" standalone="no"?>
<!DOCTYPE svg PUBLIC "-//W3C//DTD SVG 20010904//EN"
 "http://www.w3.org/TR/2001/REC-SVG-20010904/DTD/svg10.dtd">
<svg version="1.0" xmlns="http://www.w3.org/2000/svg"
 width="852.000000pt" height="852.000000pt" viewBox="0 0 852.000000 852.000000"
 preserveAspectRatio="xMidYMid meet">
<metadata>
Created by potrace 1.14, written by Peter Selinger 2001-2017
</metadata>
<g transform="translate(0.000000,852.000000) scale(0.100000,-0.100000)"
fill="#000000" stroke="none">
<path d="M5100 8503 c-45 -16 -89 -40 -122 -66 -42 -33 -106 -123 -131 -182
-117 -281 -15 -636 213 -743 72 -34 172 -36 242 -5 148 67 247 245 253 458 8
252 -103 457 -285 526 -47 18 -136 24 -170 12z"/>
<path d="M5962 8335 c-241 -72 -319 -490 -125 -678 70 -69 142 -88 228 -63
136 41 227 194 228 381 0 120 -23 190 -89 272 -64 78 -158 112 -242 88z"/>
<path d="M6657 8078 c-100 -21 -210 -151 -233 -273 -37 -201 58 -361 208 -349
155 13 282 192 273 385 -7 168 -111 267 -248 237z"/>
<path d="M7161 7678 c-131 -35 -246 -205 -236 -347 13 -168 160 -232 309 -133
139 91 203 286 133 404 -43 73 -115 100 -206 76z"/>
<path d="M5726 7220 c-27 -5 -63 -11 -80 -14 -94 -15 -219 -54 -306 -97 -273
-132 -443 -348 -479 -609 -12 -87 -5 -299 14 -420 2 -14 7 -47 10 -75 3 -27 8
-61 10 -75 2 -14 7 -45 10 -70 3 -25 10 -70 15 -100 6 -30 12 -75 15 -100 3
-25 10 -74 16 -110 14 -89 18 -116 25 -179 3 -30 7 -58 9 -61 17 -28 27 -509
13 -620 -8 -63 -46 -197 -90 -320 -85 -238 -143 -406 -174 -505 -35 -109 -97
-352 -109 -430 -4 -22 -9 -53 -11 -70 -10 -60 -11 -262 -3 -325 39 -289 210
-474 524 -565 474 -137 824 85 1134 720 97 198 297 708 335 855 3 8 37 113 76
233 66 201 149 417 230 592 18 39 63 140 102 225 38 85 75 169 83 185 73 161
160 426 184 560 33 184 23 360 -27 505 -23 67 -81 184 -93 188 -5 2 -9 8 -9
14 0 32 -153 216 -257 309 -206 184 -453 297 -773 354 -57 10 -341 14 -394 5z"/>
<path d="M7549 7176 c-57 -20 -106 -54 -140 -97 -146 -184 2 -381 207 -276
168 86 215 301 80 366 -48 24 -95 26 -147 7z"/>
<path d="M3236 6070 c-51 -16 -130 -71 -166 -116 -90 -114 -129 -229 -131
-384 -2 -217 103 -417 256 -489 111 -53 251 -24 345 72 104 105 153 235 154
407 0 114 -3 143 -30 222 -70 211 -259 338 -428 288z"/>
<path d="M2406 5882 c-55 -18 -126 -82 -156 -143 -60 -117 -60 -288 1 -415 93
-196 289 -246 420 -107 201 210 85 651 -177 677 -22 2 -61 -4 -88 -12z"/>
<path d="M1733 5613 c-88 -30 -145 -138 -139 -262 12 -234 213 -414 372 -333
80 41 118 114 118 227 1 105 -22 178 -82 257 -76 101 -176 142 -269 111z"/>
<path d="M1241 5210 c-48 -11 -83 -40 -108 -90 -64 -125 13 -323 157 -404 46
-26 66 -31 120 -31 52 0 71 5 98 23 144 103 71 385 -122 476 -61 29 -100 36
-145 26z"/>
<path d="M2568 4785 c-2 -2 -37 -5 -80 -8 -83 -7 -84 -7 -208 -36 -298 -71
-586 -246 -764 -465 -17 -21 -36 -43 -42 -50 -27 -29 -113 -169 -148 -240 -58
-123 -78 -210 -81 -361 -2 -80 3 -160 11 -205 14 -76 62 -256 73 -275 3 -5 6
-14 7 -20 4 -21 78 -204 120 -294 24 -51 44 -95 44 -96 0 -2 39 -83 86 -182
189 -391 213 -449 355 -858 345 -997 628 -1464 983 -1625 153 -69 333 -81 502
-34 28 8 60 16 70 18 32 7 146 58 199 90 154 93 245 223 286 406 15 68 18 113
15 225 -8 260 -61 463 -263 995 -144 378 -149 393 -170 525 -15 95 -7 552 11
652 4 20 13 99 21 177 3 26 9 76 15 110 37 233 64 520 64 681 1 163 -9 220
-55 331 -61 147 -195 298 -327 371 -26 14 -52 29 -57 34 -6 4 -49 23 -96 42
-151 61 -284 87 -466 91 -57 2 -104 2 -105 1z"/>
<path d="M844 4698 c-42 -11 -82 -53 -94 -99 -36 -132 101 -294 255 -303 65
-4 108 15 141 63 49 73 24 184 -62 266 -72 69 -156 95 -240 73z"/>
</g>
</svg>
