<svg width="529.474" height="498.552" viewBox="0 0 140.09 131.909" xml:space="preserve" xmlns="http://www.w3.org/2000/svg"><path style="opacity:1;fill:none;stroke:#178080;stroke-width:5.29167;stroke-linecap:round;stroke-linejoin:round;stroke-dasharray:none;stroke-opacity:1" d="M49.373 65.691c1.057 33.03 3.721 66.432-9.205 96.236-5.516 17.86-4.885 32.152 23.85 30.126 12.613-2.927 34.883-2.792 46.022-.957 16.417.269 35.706-.685 42.248-.78 26.188 5.385 21.243-13.92 14.66-14.582-3.61-.855-7.506-2.017-17.155-.836-25.664-3.426-57.289-36.566-58.456-60.073l-.182-49.195" transform="translate(-34.755 -62.984)"/><path style="opacity:1;fill:none;stroke:#178080;stroke-width:5.29167;stroke-linecap:round;stroke-linejoin:round;stroke-dasharray:none;stroke-opacity:1" d="M62.31 145.452c-5.414 12.409-3.199 19.73 8.62 20.65" transform="translate(-34.755 -62.984)"/></svg>