<svg width="369.153" height="402.831" viewBox="0 0 97.672 106.582" xml:space="preserve" xmlns="http://www.w3.org/2000/svg"><g style="opacity:1;stroke:#1d8017;stroke-opacity:1"><g style="stroke:#1d8017;stroke-width:4.23333;stroke-dasharray:none;stroke-opacity:1"><path style="opacity:.410646;fill:none;stroke:#1d8017;stroke-width:4.23333;stroke-linecap:round;stroke-linejoin:round;stroke-dasharray:none;stroke-opacity:1" d="m76.05 197.282-.448-9.17-19.907-25.276.089-38.14c-.223-10.808 11.715-10.688 11.095 0v17.785" transform="translate(-53.579 -93.04)"/><path style="opacity:.410646;fill:none;stroke:#1d8017;stroke-width:4.23333;stroke-linecap:round;stroke-linejoin:round;stroke-dasharray:none;stroke-opacity:1" d="m75.384 169.858-10.011-10.983c-5.538-7.285 2.543-12.504 7.699-7.787 5.286 5.581 7.466 9.584 18.188 17.34 4.806 3.28 5.531 6.561 6.263 9.842v19.236" transform="translate(-53.579 -93.04)"/></g><g style="stroke:#1d8017;stroke-width:4.23333;stroke-dasharray:none;stroke-opacity:1"><path style="opacity:.410646;fill:none;stroke:#1d8017;stroke-width:4.23333;stroke-linecap:round;stroke-linejoin:round;stroke-dasharray:none;stroke-opacity:1" d="m76.05 197.282-.448-9.17-19.907-25.276.089-38.14c-.223-10.808 11.715-10.688 11.095 0v17.785" transform="matrix(-1 0 0 1 151.25 -93.04)"/><path style="opacity:.410646;fill:none;stroke:#1d8017;stroke-width:4.23333;stroke-linecap:round;stroke-linejoin:round;stroke-dasharray:none;stroke-opacity:1" d="m75.384 169.858-10.011-10.983c-5.538-7.285 2.543-12.504 7.699-7.787 5.286 5.581 7.466 9.584 18.188 17.34 4.806 3.28 5.531 6.561 6.263 9.842v19.236" transform="matrix(-1 0 0 1 151.25 -93.04)"/></g><g style="stroke:#1d8017;stroke-width:4.23333;stroke-dasharray:none;stroke-opacity:1"><path style="opacity:.410646;fill:none;stroke:#1d8017;stroke-width:4.23333;stroke-linecap:round;stroke-linejoin:round;stroke-dasharray:none;stroke-opacity:1" d="M101.101 161.27c-3.06-24.345 1.794-35.908 6.263-48.09" transform="translate(-53.578 -92.05)"/><path style="opacity:.410646;fill:none;stroke:#1d8017;stroke-width:4.23333;stroke-linecap:round;stroke-linejoin:round;stroke-dasharray:none;stroke-opacity:1" d="M92.378 143.152c-15.46-23.423 3.434-35.998 21.026-48.985 1.093 2.499 25.088 42.91-12.974 53.683" transform="translate(-53.578 -92.05)"/></g></g></svg>